<?xml version="1.0" encoding="iso-8859-1"?>
<!DOCTYPE svg PUBLIC "-//W3C//DTD SVG 1.0//EN" "http://www.w3.org/TR/2001/REC-SVG-20010904/DTD/svg10.dtd">
<svg width="1250" height="820" xmlns="http://www.w3.org/2000/svg" xmlns:xlink="http://www.w3.org/1999/xlink">
<g style="stroke:black;fill:lightgreen" transform="translate(30,30)">
<line x1="483" y1="547" x2="483" y2="547" style="stroke:blue; stroke-width:1"/>
<line x1="483" y1="547" x2="550" y2="547" style="stroke:blue; stroke-width:1"/>
<line x1="550" y1="395" x2="550" y2="395" style="stroke:blue; stroke-width:1"/>
<line x1="550" y1="395" x2="617" y2="395" style="stroke:blue; stroke-width:1"/>
<line x1="884" y1="243" x2="884" y2="243" style="stroke:blue; stroke-width:1"/>
<line x1="884" y1="243" x2="950" y2="243" style="stroke:blue; stroke-width:1"/>
<line x1="750" y1="319" x2="750" y2="319" style="stroke:blue; stroke-width:1"/>
<line x1="750" y1="319" x2="817" y2="319" style="stroke:blue; stroke-width:1"/>
<line x1="884" y1="168" x2="884" y2="168" style="stroke:blue; stroke-width:1"/>
<line x1="884" y1="168" x2="950" y2="168" style="stroke:blue; stroke-width:1"/>
<line x1="683" y1="471" x2="683" y2="471" style="stroke:blue; stroke-width:1"/>
<line x1="683" y1="471" x2="750" y2="471" style="stroke:blue; stroke-width:1"/>
<line x1="817" y1="92" x2="817" y2="92" style="stroke:blue; stroke-width:1"/>
<line x1="817" y1="92" x2="884" y2="92" style="stroke:blue; stroke-width:1"/>
<line x1="1017" y1="16" x2="1017" y2="16" style="stroke:blue; stroke-width:1"/>
<line x1="1017" y1="16" x2="1084" y2="16" style="stroke:blue; stroke-width:1"/>
<line x1="483" y1="622" x2="483" y2="622" style="stroke:blue; stroke-width:1"/>
<line x1="483" y1="622" x2="550" y2="622" style="stroke:blue; stroke-width:1"/>
<line x1="350" y1="774" x2="350" y2="774" style="stroke:blue; stroke-width:1"/>
<line x1="350" y1="774" x2="416" y2="774" style="stroke:blue; stroke-width:1"/>
<line x1="416" y1="698" x2="416" y2="698" style="stroke:blue; stroke-width:1"/>
<line x1="416" y1="698" x2="483" y2="698" style="stroke:blue; stroke-width:1"/>
<line x1="416" y1="547" x2="416" y2="547" style="stroke:blue; stroke-width:1"/>
<line x1="416" y1="547" x2="483" y2="547" style="stroke:blue; stroke-width:1"/>
<line x1="350" y1="547" x2="350" y2="547" style="stroke:blue; stroke-width:1"/>
<line x1="350" y1="547" x2="416" y2="547" style="stroke:blue; stroke-width:1"/>
<line x1="283" y1="348" x2="283" y2="547" style="stroke:blue; stroke-width:1"/>
<line x1="283" y1="547" x2="350" y2="547" style="stroke:blue; stroke-width:1"/>
<line x1="483" y1="395" x2="483" y2="395" style="stroke:blue; stroke-width:1"/>
<line x1="483" y1="395" x2="550" y2="395" style="stroke:blue; stroke-width:1"/>
<line x1="416" y1="319" x2="416" y2="395" style="stroke:blue; stroke-width:1"/>
<line x1="416" y1="395" x2="483" y2="395" style="stroke:blue; stroke-width:1"/>
<line x1="817" y1="243" x2="817" y2="243" style="stroke:blue; stroke-width:1"/>
<line x1="817" y1="243" x2="884" y2="243" style="stroke:blue; stroke-width:1"/>
<line x1="750" y1="243" x2="750" y2="243" style="stroke:blue; stroke-width:1"/>
<line x1="750" y1="243" x2="817" y2="243" style="stroke:blue; stroke-width:1"/>
<line x1="683" y1="243" x2="683" y2="243" style="stroke:blue; stroke-width:1"/>
<line x1="683" y1="243" x2="750" y2="243" style="stroke:blue; stroke-width:1"/>
<line x1="617" y1="243" x2="617" y2="243" style="stroke:blue; stroke-width:1"/>
<line x1="617" y1="243" x2="683" y2="243" style="stroke:blue; stroke-width:1"/>
<line x1="550" y1="243" x2="550" y2="243" style="stroke:blue; stroke-width:1"/>
<line x1="550" y1="243" x2="617" y2="243" style="stroke:blue; stroke-width:1"/>
<line x1="483" y1="243" x2="483" y2="243" style="stroke:blue; stroke-width:1"/>
<line x1="483" y1="243" x2="550" y2="243" style="stroke:blue; stroke-width:1"/>
<line x1="683" y1="319" x2="683" y2="319" style="stroke:blue; stroke-width:1"/>
<line x1="683" y1="319" x2="750" y2="319" style="stroke:blue; stroke-width:1"/>
<line x1="617" y1="319" x2="617" y2="319" style="stroke:blue; stroke-width:1"/>
<line x1="617" y1="319" x2="683" y2="319" style="stroke:blue; stroke-width:1"/>
<line x1="550" y1="319" x2="550" y2="319" style="stroke:blue; stroke-width:1"/>
<line x1="550" y1="319" x2="617" y2="319" style="stroke:blue; stroke-width:1"/>
<line x1="483" y1="243" x2="483" y2="319" style="stroke:blue; stroke-width:1"/>
<line x1="483" y1="319" x2="550" y2="319" style="stroke:blue; stroke-width:1"/>
<line x1="817" y1="168" x2="817" y2="168" style="stroke:blue; stroke-width:1"/>
<line x1="817" y1="168" x2="884" y2="168" style="stroke:blue; stroke-width:1"/>
<line x1="750" y1="168" x2="750" y2="168" style="stroke:blue; stroke-width:1"/>
<line x1="750" y1="168" x2="817" y2="168" style="stroke:blue; stroke-width:1"/>
<line x1="683" y1="168" x2="683" y2="168" style="stroke:blue; stroke-width:1"/>
<line x1="683" y1="168" x2="750" y2="168" style="stroke:blue; stroke-width:1"/>
<line x1="617" y1="168" x2="617" y2="168" style="stroke:blue; stroke-width:1"/>
<line x1="617" y1="168" x2="683" y2="168" style="stroke:blue; stroke-width:1"/>
<line x1="550" y1="168" x2="550" y2="168" style="stroke:blue; stroke-width:1"/>
<line x1="550" y1="168" x2="617" y2="168" style="stroke:blue; stroke-width:1"/>
<line x1="483" y1="243" x2="483" y2="168" style="stroke:blue; stroke-width:1"/>
<line x1="483" y1="168" x2="550" y2="168" style="stroke:blue; stroke-width:1"/>
<line x1="416" y1="319" x2="416" y2="243" style="stroke:blue; stroke-width:1"/>
<line x1="416" y1="243" x2="483" y2="243" style="stroke:blue; stroke-width:1"/>
<line x1="350" y1="319" x2="350" y2="319" style="stroke:blue; stroke-width:1"/>
<line x1="350" y1="319" x2="416" y2="319" style="stroke:blue; stroke-width:1"/>
<line x1="283" y1="348" x2="283" y2="319" style="stroke:blue; stroke-width:1"/>
<line x1="283" y1="319" x2="350" y2="319" style="stroke:blue; stroke-width:1"/>
<line x1="617" y1="471" x2="617" y2="471" style="stroke:blue; stroke-width:1"/>
<line x1="617" y1="471" x2="683" y2="471" style="stroke:blue; stroke-width:1"/>
<line x1="550" y1="471" x2="550" y2="471" style="stroke:blue; stroke-width:1"/>
<line x1="550" y1="471" x2="617" y2="471" style="stroke:blue; stroke-width:1"/>
<line x1="483" y1="471" x2="483" y2="471" style="stroke:blue; stroke-width:1"/>
<line x1="483" y1="471" x2="550" y2="471" style="stroke:blue; stroke-width:1"/>
<line x1="416" y1="471" x2="416" y2="471" style="stroke:blue; stroke-width:1"/>
<line x1="416" y1="471" x2="483" y2="471" style="stroke:blue; stroke-width:1"/>
<line x1="350" y1="471" x2="350" y2="471" style="stroke:blue; stroke-width:1"/>
<line x1="350" y1="471" x2="416" y2="471" style="stroke:blue; stroke-width:1"/>
<line x1="283" y1="348" x2="283" y2="471" style="stroke:blue; stroke-width:1"/>
<line x1="283" y1="471" x2="350" y2="471" style="stroke:blue; stroke-width:1"/>
<line x1="750" y1="92" x2="750" y2="92" style="stroke:blue; stroke-width:1"/>
<line x1="750" y1="92" x2="817" y2="92" style="stroke:blue; stroke-width:1"/>
<line x1="683" y1="54" x2="683" y2="92" style="stroke:blue; stroke-width:1"/>
<line x1="683" y1="92" x2="750" y2="92" style="stroke:blue; stroke-width:1"/>
<line x1="950" y1="16" x2="950" y2="16" style="stroke:blue; stroke-width:1"/>
<line x1="950" y1="16" x2="1017" y2="16" style="stroke:blue; stroke-width:1"/>
<line x1="884" y1="16" x2="884" y2="16" style="stroke:blue; stroke-width:1"/>
<line x1="884" y1="16" x2="950" y2="16" style="stroke:blue; stroke-width:1"/>
<line x1="817" y1="16" x2="817" y2="16" style="stroke:blue; stroke-width:1"/>
<line x1="817" y1="16" x2="884" y2="16" style="stroke:blue; stroke-width:1"/>
<line x1="750" y1="16" x2="750" y2="16" style="stroke:blue; stroke-width:1"/>
<line x1="750" y1="16" x2="817" y2="16" style="stroke:blue; stroke-width:1"/>
<line x1="683" y1="54" x2="683" y2="16" style="stroke:blue; stroke-width:1"/>
<line x1="683" y1="16" x2="750" y2="16" style="stroke:blue; stroke-width:1"/>
<line x1="617" y1="54" x2="617" y2="54" style="stroke:blue; stroke-width:1"/>
<line x1="617" y1="54" x2="683" y2="54" style="stroke:blue; stroke-width:1"/>
<line x1="550" y1="54" x2="550" y2="54" style="stroke:blue; stroke-width:1"/>
<line x1="550" y1="54" x2="617" y2="54" style="stroke:blue; stroke-width:1"/>
<line x1="483" y1="54" x2="483" y2="54" style="stroke:blue; stroke-width:1"/>
<line x1="483" y1="54" x2="550" y2="54" style="stroke:blue; stroke-width:1"/>
<line x1="416" y1="54" x2="416" y2="54" style="stroke:blue; stroke-width:1"/>
<line x1="416" y1="54" x2="483" y2="54" style="stroke:blue; stroke-width:1"/>
<line x1="350" y1="54" x2="350" y2="54" style="stroke:blue; stroke-width:1"/>
<line x1="350" y1="54" x2="416" y2="54" style="stroke:blue; stroke-width:1"/>
<line x1="283" y1="348" x2="283" y2="54" style="stroke:blue; stroke-width:1"/>
<line x1="283" y1="54" x2="350" y2="54" style="stroke:blue; stroke-width:1"/>
<line x1="216" y1="348" x2="216" y2="348" style="stroke:blue; stroke-width:1"/>
<line x1="216" y1="348" x2="283" y2="348" style="stroke:blue; stroke-width:1"/>
<line x1="149" y1="485" x2="149" y2="348" style="stroke:blue; stroke-width:1"/>
<line x1="149" y1="348" x2="216" y2="348" style="stroke:blue; stroke-width:1"/>
<line x1="416" y1="622" x2="416" y2="622" style="stroke:blue; stroke-width:1"/>
<line x1="416" y1="622" x2="483" y2="622" style="stroke:blue; stroke-width:1"/>
<line x1="350" y1="622" x2="350" y2="622" style="stroke:blue; stroke-width:1"/>
<line x1="350" y1="622" x2="416" y2="622" style="stroke:blue; stroke-width:1"/>
<line x1="283" y1="622" x2="283" y2="622" style="stroke:blue; stroke-width:1"/>
<line x1="283" y1="622" x2="350" y2="622" style="stroke:blue; stroke-width:1"/>
<line x1="216" y1="622" x2="216" y2="622" style="stroke:blue; stroke-width:1"/>
<line x1="216" y1="622" x2="283" y2="622" style="stroke:blue; stroke-width:1"/>
<line x1="149" y1="485" x2="149" y2="622" style="stroke:blue; stroke-width:1"/>
<line x1="149" y1="622" x2="216" y2="622" style="stroke:blue; stroke-width:1"/>
<line x1="283" y1="736" x2="283" y2="774" style="stroke:blue; stroke-width:1"/>
<line x1="283" y1="774" x2="350" y2="774" style="stroke:blue; stroke-width:1"/>
<line x1="350" y1="698" x2="350" y2="698" style="stroke:blue; stroke-width:1"/>
<line x1="350" y1="698" x2="416" y2="698" style="stroke:blue; stroke-width:1"/>
<line x1="283" y1="736" x2="283" y2="698" style="stroke:blue; stroke-width:1"/>
<line x1="283" y1="698" x2="350" y2="698" style="stroke:blue; stroke-width:1"/>
<line x1="216" y1="736" x2="216" y2="736" style="stroke:blue; stroke-width:1"/>
<line x1="216" y1="736" x2="283" y2="736" style="stroke:blue; stroke-width:1"/>
<line x1="149" y1="736" x2="149" y2="736" style="stroke:blue; stroke-width:1"/>
<line x1="149" y1="736" x2="216" y2="736" style="stroke:blue; stroke-width:1"/>
<line x1="83" y1="611" x2="83" y2="736" style="stroke:blue; stroke-width:1"/>
<line x1="83" y1="736" x2="149" y2="736" style="stroke:blue; stroke-width:1"/>
<line x1="16" y1="611" x2="16" y2="611" style="stroke:blue; stroke-width:1"/>
<line x1="16" y1="611" x2="83" y2="611" style="stroke:blue; stroke-width:1"/>
<line x1="83" y1="611" x2="83" y2="485" style="stroke:blue; stroke-width:1"/>
<line x1="83" y1="485" x2="149" y2="485" style="stroke:blue; stroke-width:1"/>
<text x="20" y="607" font-weight = "10" font-family="verdana" fill="black" font-size="17">Root</text>
<text x="420" y="780" font-weight = "10" font-family="verdana" fill="black" font-size="17">Estonian</text>
<text x="487" y="704" font-weight = "10" font-family="verdana" fill="black" font-size="17">Finnish</text>
<text x="554" y="628" font-weight = "10" font-family="verdana" fill="black" font-size="17">Turkish</text>
<text x="554" y="553" font-weight = "10" font-family="verdana" fill="black" font-size="17">Russian</text>
<text x="754" y="477" font-weight = "10" font-family="verdana" fill="black" font-size="17">Modern-Greek</text>
<text x="621" y="401" font-weight = "10" font-family="verdana" fill="black" font-size="17">Norwegian</text>
<text x="821" y="325" font-weight = "10" font-family="verdana" fill="black" font-size="17">Dutch</text>
<text x="954" y="249" font-weight = "10" font-family="verdana" fill="black" font-size="17">German</text>
<text x="954" y="174" font-weight = "10" font-family="verdana" fill="black" font-size="17">English</text>
<text x="888" y="98" font-weight = "10" font-family="verdana" fill="black" font-size="17">Italian</text>
<text x="1088" y="22" font-weight = "10" font-family="verdana" fill="black" font-size="17">Spanish</text>
</g></svg>